<svg xmlns="http://www.w3.org/2000/svg" width="800" height="800" viewBox="0 0 800 800"><circle cx="259.07" cy="120.68" r="0.90" fill="#ffffff" fill-opacity="0.243"/><circle cx="46.40" cy="405.95" r="0.38" fill="#bcd7ff" fill-opacity="0.460"/><circle cx="72.57" cy="339.62" r="1.05" fill="#ffffff" fill-opacity="0.274"/><circle cx="758.17" cy="461.68" r="0.69" fill="#bcd7ff" fill-opacity="0.786"/><circle cx="686.77" cy="231.69" r="0.47" fill="#ffffff" fill-opacity="0.271"/><circle cx="144.58" cy="465.28" r="0.89" fill="#ffffff" fill-opacity="0.423"/><circle cx="47.68" cy="164.77" r="0.93" fill="#ffffff" fill-opacity="0.457"/><circle cx="362.55" cy="239.81" r="1.03" fill="#ffffff" fill-opacity="0.619"/><circle cx="420.16" cy="700.11" r="0.97" fill="#ffffff" fill-opacity="0.373"/><circle cx="334.50" cy="605.71" r="0.48" fill="#bcd7ff" fill-opacity="0.493"/><circle cx="534.57" cy="611.66" r="0.84" fill="#ffffff" fill-opacity="0.725"/><circle cx="475.50" cy="463.92" r="0.74" fill="#ffffff" fill-opacity="0.704"/><circle cx="531.32" cy="48.54" r="0.95" fill="#ffffff" fill-opacity="0.588"/><circle cx="227.68" cy="308.63" r="0.92" fill="#ffffff" fill-opacity="0.214"/><circle cx="93.68" cy="47.16" r="1.00" fill="#ffffff" fill-opacity="0.278"/><circle cx="697.14" cy="64.47" r="0.73" fill="#ffffff" fill-opacity="0.530"/><circle cx="691.19" cy="222.74" r="0.70" fill="#ffffff" fill-opacity="0.415"/><circle cx="120.74" cy="140.97" r="0.55" fill="#ffffff" fill-opacity="0.340"/><circle cx="210.20" cy="3.27" r="0.71" fill="#ffffff" fill-opacity="0.422"/><circle cx="552.39" cy="412.39" r="0.87" fill="#bcd7ff" fill-opacity="0.606"/><circle cx="719.63" cy="623.98" r="1.09" fill="#ffffff" fill-opacity="0.679"/><circle cx="82.83" cy="507.43" r="0.40" fill="#ffffff" fill-opacity="0.240"/><circle cx="272.04" cy="42.06" r="0.35" fill="#bcd7ff" fill-opacity="0.291"/><circle cx="290.89" cy="20.40" r="1.09" fill="#ffffff" fill-opacity="0.568"/><circle cx="277.91" cy="291.33" r="0.45" fill="#ffffff" fill-opacity="0.709"/><circle cx="387.07" cy="68.71" r="0.44" fill="#ffffff" fill-opacity="0.406"/><circle cx="129.15" cy="18.48" r="1.16" fill="#ffffff" fill-opacity="0.517"/><circle cx="21.63" cy="422.49" r="1.18" fill="#ffffff" fill-opacity="0.718"/><circle cx="293.36" cy="133.63" r="1.01" fill="#ffffff" fill-opacity="0.520"/><circle cx="178.43" cy="649.21" r="1.19" fill="#ffffff" fill-opacity="0.712"/><circle cx="591.90" cy="181.39" r="0.79" fill="#bcd7ff" fill-opacity="0.413"/><circle cx="22.35" cy="223.53" r="0.57" fill="#ffffff" fill-opacity="0.616"/><circle cx="749.62" cy="790.43" r="1.16" fill="#ffffff" fill-opacity="0.419"/><circle cx="157.36" cy="163.50" r="0.88" fill="#ffffff" fill-opacity="0.740"/><circle cx="522.38" cy="639.71" r="0.42" fill="#ffffff" fill-opacity="0.596"/><circle cx="600.11" cy="382.43" r="0.50" fill="#ffffff" fill-opacity="0.673"/><circle cx="777.33" cy="316.67" r="0.69" fill="#ffffff" fill-opacity="0.768"/><circle cx="101.63" cy="120.92" r="1.12" fill="#ffffff" fill-opacity="0.684"/><circle cx="784.24" cy="525.81" r="0.65" fill="#ffe7b8" fill-opacity="0.529"/><circle cx="776.71" cy="519.74" r="0.80" fill="#ffffff" fill-opacity="0.760"/><circle cx="660.92" cy="168.83" r="0.56" fill="#ffffff" fill-opacity="0.376"/><circle cx="207.49" cy="335.21" r="0.46" fill="#ffffff" fill-opacity="0.746"/><circle cx="466.68" cy="723.44" r="0.71" fill="#ffffff" fill-opacity="0.751"/><circle cx="418.81" cy="14.96" r="0.72" fill="#bcd7ff" fill-opacity="0.310"/><circle cx="639.34" cy="137.88" r="0.75" fill="#ffffff" fill-opacity="0.635"/><circle cx="414.68" cy="444.35" r="1.02" fill="#ffffff" fill-opacity="0.264"/><circle cx="221.53" cy="617.81" r="0.78" fill="#ffffff" fill-opacity="0.537"/><circle cx="354.60" cy="490.02" r="0.78" fill="#ffffff" fill-opacity="0.507"/><circle cx="426.63" cy="382.43" r="1.15" fill="#ffffff" fill-opacity="0.620"/><circle cx="207.67" cy="447.61" r="1.15" fill="#ffffff" fill-opacity="0.704"/><circle cx="353.69" cy="58.04" r="0.55" fill="#ffffff" fill-opacity="0.244"/><circle cx="717.62" cy="123.56" r="0.96" fill="#ffffff" fill-opacity="0.596"/><circle cx="774.04" cy="175.67" r="1.16" fill="#ffffff" fill-opacity="0.439"/><circle cx="665.96" cy="129.17" r="0.72" fill="#ffffff" fill-opacity="0.509"/><circle cx="254.82" cy="577.72" r="0.37" fill="#ffe7b8" fill-opacity="0.532"/><circle cx="265.20" cy="499.14" r="0.79" fill="#ffffff" fill-opacity="0.239"/><circle cx="777.36" cy="83.82" r="0.58" fill="#ffffff" fill-opacity="0.224"/><circle cx="103.64" cy="337.80" r="1.12" fill="#ffffff" fill-opacity="0.691"/><circle cx="735.34" cy="456.48" r="0.95" fill="#bcd7ff" fill-opacity="0.254"/><circle cx="550.56" cy="340.25" r="0.41" fill="#ffffff" fill-opacity="0.763"/><circle cx="66.99" cy="684.98" r="0.41" fill="#ffffff" fill-opacity="0.718"/><circle cx="442.45" cy="741.34" r="0.58" fill="#ffffff" fill-opacity="0.278"/><circle cx="87.56" cy="129.16" r="0.39" fill="#ffffff" fill-opacity="0.321"/><circle cx="607.60" cy="231.97" r="0.78" fill="#ffe7b8" fill-opacity="0.307"/><circle cx="200.36" cy="12.28" r="0.97" fill="#ffffff" fill-opacity="0.531"/><circle cx="747.71" cy="85.03" r="1.05" fill="#ffffff" fill-opacity="0.459"/><circle cx="314.47" cy="405.35" r="0.93" fill="#ffffff" fill-opacity="0.789"/><circle cx="565.38" cy="508.78" r="0.69" fill="#bcd7ff" fill-opacity="0.409"/><circle cx="103.85" cy="56.58" r="0.98" fill="#ffffff" fill-opacity="0.353"/><circle cx="673.02" cy="696.43" r="0.92" fill="#ffffff" fill-opacity="0.369"/><circle cx="367.56" cy="126.03" r="0.73" fill="#ffffff" fill-opacity="0.358"/><circle cx="437.66" cy="195.56" r="1.17" fill="#ffe7b8" fill-opacity="0.386"/><circle cx="305.30" cy="379.71" r="0.78" fill="#ffe7b8" fill-opacity="0.321"/><circle cx="211.33" cy="71.80" r="0.69" fill="#bcd7ff" fill-opacity="0.225"/><circle cx="243.40" cy="186.25" r="0.85" fill="#ffffff" fill-opacity="0.518"/><circle cx="572.79" cy="703.27" r="0.68" fill="#ffffff" fill-opacity="0.396"/><circle cx="579.32" cy="514.58" r="0.39" fill="#ffffff" fill-opacity="0.701"/><circle cx="587.08" cy="649.78" r="0.47" fill="#ffffff" fill-opacity="0.514"/><circle cx="643.74" cy="661.13" r="0.85" fill="#ffffff" fill-opacity="0.736"/><circle cx="183.95" cy="24.93" r="0.46" fill="#bcd7ff" fill-opacity="0.416"/><circle cx="668.66" cy="446.82" r="0.88" fill="#ffffff" fill-opacity="0.576"/><circle cx="2.65" cy="638.16" r="0.99" fill="#ffffff" fill-opacity="0.502"/><circle cx="52.84" cy="589.43" r="0.56" fill="#ffffff" fill-opacity="0.245"/><circle cx="164.17" cy="591.86" r="1.18" fill="#ffffff" fill-opacity="0.496"/><circle cx="546.96" cy="613.58" r="0.87" fill="#bcd7ff" fill-opacity="0.586"/><circle cx="117.94" cy="203.15" r="0.98" fill="#ffe7b8" fill-opacity="0.383"/><circle cx="48.53" cy="215.02" r="0.92" fill="#ffffff" fill-opacity="0.615"/><circle cx="413.23" cy="371.73" r="0.75" fill="#ffffff" fill-opacity="0.271"/><circle cx="782.50" cy="749.00" r="0.36" fill="#ffffff" fill-opacity="0.475"/><circle cx="359.56" cy="214.93" r="0.53" fill="#ffffff" fill-opacity="0.767"/><circle cx="113.39" cy="419.25" r="1.16" fill="#ffffff" fill-opacity="0.280"/><circle cx="709.49" cy="562.67" r="0.55" fill="#ffe7b8" fill-opacity="0.739"/><circle cx="2.87" cy="393.36" r="0.73" fill="#ffffff" fill-opacity="0.381"/><circle cx="252.86" cy="672.18" r="0.35" fill="#ffffff" fill-opacity="0.650"/><circle cx="741.12" cy="570.42" r="1.12" fill="#ffffff" fill-opacity="0.374"/><circle cx="799.03" cy="471.34" r="0.66" fill="#ffe7b8" fill-opacity="0.457"/><circle cx="81.37" cy="667.74" r="0.59" fill="#ffffff" fill-opacity="0.761"/><circle cx="408.77" cy="151.88" r="0.67" fill="#ffffff" fill-opacity="0.774"/><circle cx="504.72" cy="730.74" r="1.15" fill="#ffe7b8" fill-opacity="0.530"/><circle cx="585.88" cy="360.69" r="0.99" fill="#ffe7b8" fill-opacity="0.587"/><circle cx="741.42" cy="101.85" r="0.75" fill="#ffffff" fill-opacity="0.406"/><circle cx="781.04" cy="208.14" r="0.91" fill="#ffffff" fill-opacity="0.381"/><circle cx="133.87" cy="129.33" r="0.53" fill="#ffffff" fill-opacity="0.744"/><circle cx="725.01" cy="797.18" r="0.73" fill="#ffffff" fill-opacity="0.284"/><circle cx="273.56" cy="72.88" r="0.55" fill="#ffffff" fill-opacity="0.355"/><circle cx="599.73" cy="330.23" r="0.70" fill="#ffffff" fill-opacity="0.515"/><circle cx="49.65" cy="222.01" r="1.17" fill="#ffffff" fill-opacity="0.276"/><circle cx="690.29" cy="172.77" r="0.58" fill="#ffffff" fill-opacity="0.349"/><circle cx="763.15" cy="678.95" r="1.09" fill="#bcd7ff" fill-opacity="0.213"/><circle cx="567.61" cy="716.56" r="0.75" fill="#bcd7ff" fill-opacity="0.552"/><circle cx="313.22" cy="741.46" r="1.05" fill="#ffffff" fill-opacity="0.713"/><circle cx="87.24" cy="123.50" r="0.79" fill="#ffffff" fill-opacity="0.609"/><circle cx="517.88" cy="611.84" r="0.74" fill="#bcd7ff" fill-opacity="0.531"/><circle cx="625.84" cy="186.06" r="1.13" fill="#ffffff" fill-opacity="0.587"/><circle cx="201.44" cy="509.03" r="0.94" fill="#bcd7ff" fill-opacity="0.267"/><circle cx="419.55" cy="466.31" r="0.68" fill="#ffe7b8" fill-opacity="0.334"/><circle cx="241.22" cy="368.55" r="1.17" fill="#ffffff" fill-opacity="0.587"/><circle cx="187.81" cy="197.65" r="1.17" fill="#ffe7b8" fill-opacity="0.623"/><circle cx="398.65" cy="539.57" r="0.71" fill="#ffffff" fill-opacity="0.354"/><circle cx="181.43" cy="27.28" r="0.64" fill="#ffffff" fill-opacity="0.452"/><circle cx="637.65" cy="591.30" r="0.78" fill="#ffffff" fill-opacity="0.323"/><circle cx="656.00" cy="184.65" r="0.54" fill="#ffffff" fill-opacity="0.656"/><circle cx="396.61" cy="149.85" r="0.54" fill="#ffffff" fill-opacity="0.450"/><circle cx="117.11" cy="314.77" r="0.53" fill="#ffe7b8" fill-opacity="0.784"/><circle cx="48.11" cy="314.66" r="1.11" fill="#ffffff" fill-opacity="0.730"/><circle cx="745.28" cy="263.39" r="0.51" fill="#ffe7b8" fill-opacity="0.762"/><circle cx="531.54" cy="302.90" r="0.67" fill="#ffe7b8" fill-opacity="0.399"/><circle cx="223.85" cy="281.17" r="1.16" fill="#ffffff" fill-opacity="0.274"/><circle cx="285.30" cy="657.26" r="1.05" fill="#bcd7ff" fill-opacity="0.459"/><circle cx="378.77" cy="298.17" r="1.13" fill="#ffffff" fill-opacity="0.316"/><circle cx="24.23" cy="328.64" r="1.04" fill="#bcd7ff" fill-opacity="0.660"/><circle cx="27.88" cy="50.06" r="1.13" fill="#ffffff" fill-opacity="0.354"/><circle cx="271.26" cy="217.85" r="1.16" fill="#ffffff" fill-opacity="0.570"/><circle cx="253.19" cy="220.50" r="0.35" fill="#ffffff" fill-opacity="0.653"/><circle cx="754.60" cy="19.41" r="0.55" fill="#ffffff" fill-opacity="0.485"/><circle cx="309.21" cy="200.84" r="0.72" fill="#ffffff" fill-opacity="0.496"/><circle cx="642.05" cy="590.79" r="1.05" fill="#ffffff" fill-opacity="0.664"/><circle cx="255.64" cy="289.49" r="1.01" fill="#ffffff" fill-opacity="0.247"/><circle cx="197.85" cy="51.79" r="0.38" fill="#ffffff" fill-opacity="0.532"/><circle cx="706.78" cy="790.26" r="0.58" fill="#bcd7ff" fill-opacity="0.250"/><circle cx="398.78" cy="567.82" r="0.73" fill="#ffffff" fill-opacity="0.341"/><circle cx="539.29" cy="598.38" r="1.07" fill="#ffffff" fill-opacity="0.599"/><circle cx="235.03" cy="453.51" r="0.67" fill="#ffffff" fill-opacity="0.643"/><circle cx="196.27" cy="122.66" r="1.10" fill="#ffffff" fill-opacity="0.547"/><circle cx="793.96" cy="405.86" r="0.55" fill="#ffffff" fill-opacity="0.685"/><circle cx="81.87" cy="379.81" r="1.05" fill="#ffe7b8" fill-opacity="0.704"/><circle cx="234.94" cy="95.37" r="0.51" fill="#ffffff" fill-opacity="0.784"/><circle cx="297.79" cy="692.90" r="0.73" fill="#ffffff" fill-opacity="0.356"/><circle cx="84.62" cy="476.92" r="0.88" fill="#ffffff" fill-opacity="0.331"/><circle cx="163.18" cy="203.93" r="0.86" fill="#ffe7b8" fill-opacity="0.591"/><circle cx="261.80" cy="542.66" r="0.51" fill="#ffffff" fill-opacity="0.387"/><circle cx="438.44" cy="50.62" r="0.44" fill="#ffffff" fill-opacity="0.437"/><circle cx="72.92" cy="130.95" r="0.94" fill="#ffffff" fill-opacity="0.446"/><circle cx="762.55" cy="249.89" r="0.83" fill="#ffffff" fill-opacity="0.414"/><circle cx="797.30" cy="291.03" r="0.52" fill="#ffe7b8" fill-opacity="0.637"/><circle cx="721.30" cy="339.00" r="1.05" fill="#ffffff" fill-opacity="0.444"/><circle cx="130.04" cy="11.87" r="0.82" fill="#ffffff" fill-opacity="0.584"/><circle cx="497.76" cy="296.67" r="0.78" fill="#ffffff" fill-opacity="0.288"/><circle cx="740.40" cy="87.03" r="0.77" fill="#ffffff" fill-opacity="0.683"/><circle cx="101.32" cy="754.46" r="1.18" fill="#bcd7ff" fill-opacity="0.490"/><circle cx="740.93" cy="310.32" r="1.12" fill="#ffffff" fill-opacity="0.572"/><circle cx="628.66" cy="177.66" r="0.69" fill="#ffffff" fill-opacity="0.708"/><circle cx="174.51" cy="319.80" r="0.79" fill="#ffffff" fill-opacity="0.430"/><circle cx="579.91" cy="717.84" r="0.38" fill="#ffe7b8" fill-opacity="0.537"/><circle cx="670.56" cy="94.18" r="0.86" fill="#ffffff" fill-opacity="0.530"/><circle cx="336.06" cy="466.10" r="0.71" fill="#ffffff" fill-opacity="0.595"/><circle cx="18.70" cy="495.11" r="0.77" fill="#ffffff" fill-opacity="0.341"/><circle cx="366.63" cy="143.66" r="0.75" fill="#ffffff" fill-opacity="0.264"/><circle cx="73.37" cy="353.57" r="0.78" fill="#ffffff" fill-opacity="0.224"/><circle cx="586.78" cy="622.11" r="0.78" fill="#ffffff" fill-opacity="0.233"/><circle cx="760.69" cy="108.95" r="1.08" fill="#ffffff" fill-opacity="0.798"/><circle cx="154.97" cy="785.38" r="0.77" fill="#ffffff" fill-opacity="0.774"/><circle cx="630.71" cy="744.47" r="0.41" fill="#ffffff" fill-opacity="0.411"/><circle cx="717.23" cy="219.99" r="1.04" fill="#ffffff" fill-opacity="0.286"/><circle cx="166.66" cy="210.29" r="0.78" fill="#bcd7ff" fill-opacity="0.391"/><circle cx="145.68" cy="128.98" r="1.15" fill="#ffffff" fill-opacity="0.608"/><circle cx="627.90" cy="92.06" r="0.80" fill="#ffffff" fill-opacity="0.582"/><circle cx="444.14" cy="464.03" r="1.10" fill="#ffffff" fill-opacity="0.263"/><circle cx="315.41" cy="638.14" r="0.58" fill="#ffffff" fill-opacity="0.794"/><circle cx="611.71" cy="353.83" r="0.50" fill="#bcd7ff" fill-opacity="0.646"/><circle cx="655.86" cy="202.92" r="0.89" fill="#ffffff" fill-opacity="0.790"/><circle cx="250.12" cy="1.43" r="0.38" fill="#ffffff" fill-opacity="0.290"/><circle cx="410.14" cy="716.43" r="0.46" fill="#ffe7b8" fill-opacity="0.336"/><circle cx="2.09" cy="283.97" r="0.44" fill="#ffffff" fill-opacity="0.414"/><circle cx="471.27" cy="163.35" r="0.88" fill="#ffffff" fill-opacity="0.485"/><circle cx="194.87" cy="119.45" r="0.43" fill="#ffffff" fill-opacity="0.583"/><circle cx="321.56" cy="211.39" r="0.36" fill="#ffffff" fill-opacity="0.587"/><circle cx="516.48" cy="355.00" r="1.15" fill="#ffffff" fill-opacity="0.640"/><circle cx="35.20" cy="425.22" r="0.70" fill="#bcd7ff" fill-opacity="0.343"/><circle cx="623.10" cy="9.88" r="0.82" fill="#ffffff" fill-opacity="0.765"/><circle cx="486.47" cy="405.56" r="0.90" fill="#ffffff" fill-opacity="0.688"/><circle cx="240.21" cy="38.79" r="1.11" fill="#ffe7b8" fill-opacity="0.670"/><circle cx="675.55" cy="596.15" r="0.75" fill="#ffffff" fill-opacity="0.645"/><circle cx="84.23" cy="185.84" r="0.38" fill="#ffffff" fill-opacity="0.401"/><circle cx="676.27" cy="569.35" r="0.58" fill="#ffffff" fill-opacity="0.532"/><circle cx="418.60" cy="212.24" r="0.90" fill="#ffffff" fill-opacity="0.779"/><circle cx="12.18" cy="208.29" r="0.55" fill="#ffffff" fill-opacity="0.646"/><circle cx="261.50" cy="704.13" r="0.63" fill="#ffffff" fill-opacity="0.344"/><circle cx="554.27" cy="532.19" r="1.18" fill="#ffffff" fill-opacity="0.482"/><circle cx="686.02" cy="349.77" r="0.97" fill="#ffffff" fill-opacity="0.542"/><circle cx="498.10" cy="62.24" r="1.12" fill="#bcd7ff" fill-opacity="0.287"/><circle cx="85.34" cy="743.16" r="0.64" fill="#bcd7ff" fill-opacity="0.285"/><circle cx="33.32" cy="554.10" r="0.89" fill="#ffffff" fill-opacity="0.618"/><circle cx="472.38" cy="290.72" r="1.04" fill="#ffffff" fill-opacity="0.692"/><circle cx="694.23" cy="731.53" r="1.15" fill="#ffffff" fill-opacity="0.264"/><circle cx="27.54" cy="678.17" r="1.04" fill="#ffffff" fill-opacity="0.581"/><circle cx="229.89" cy="79.90" r="0.43" fill="#ffffff" fill-opacity="0.654"/><circle cx="339.01" cy="16.73" r="0.57" fill="#ffffff" fill-opacity="0.370"/><circle cx="256.66" cy="771.20" r="0.78" fill="#ffe7b8" fill-opacity="0.711"/><circle cx="330.34" cy="349.16" r="1.01" fill="#ffffff" fill-opacity="0.408"/><circle cx="173.26" cy="689.79" r="0.43" fill="#ffe7b8" fill-opacity="0.692"/><circle cx="161.63" cy="609.74" r="1.18" fill="#ffffff" fill-opacity="0.203"/><circle cx="637.42" cy="147.62" r="0.77" fill="#ffffff" fill-opacity="0.408"/><circle cx="755.10" cy="226.98" r="0.53" fill="#ffffff" fill-opacity="0.620"/><circle cx="509.23" cy="64.71" r="1.02" fill="#ffffff" fill-opacity="0.618"/><circle cx="284.49" cy="321.02" r="0.69" fill="#bcd7ff" fill-opacity="0.734"/><circle cx="710.76" cy="20.14" r="0.53" fill="#ffffff" fill-opacity="0.358"/><circle cx="303.44" cy="707.18" r="0.55" fill="#ffffff" fill-opacity="0.477"/><circle cx="602.39" cy="517.04" r="0.65" fill="#ffffff" fill-opacity="0.396"/><circle cx="529.68" cy="593.59" r="0.49" fill="#ffffff" fill-opacity="0.463"/><circle cx="100.85" cy="369.61" r="1.10" fill="#ffffff" fill-opacity="0.343"/><circle cx="562.53" cy="674.93" r="0.48" fill="#ffffff" fill-opacity="0.294"/><circle cx="417.74" cy="128.74" r="0.63" fill="#ffffff" fill-opacity="0.314"/><circle cx="81.45" cy="769.91" r="0.44" fill="#ffffff" fill-opacity="0.431"/><circle cx="586.63" cy="347.94" r="0.52" fill="#bcd7ff" fill-opacity="0.583"/><circle cx="165.16" cy="310.67" r="0.38" fill="#ffffff" fill-opacity="0.439"/><circle cx="400.39" cy="505.90" r="0.74" fill="#ffffff" fill-opacity="0.285"/><circle cx="592.76" cy="726.40" r="0.72" fill="#ffffff" fill-opacity="0.544"/><circle cx="182.85" cy="577.78" r="1.10" fill="#ffffff" fill-opacity="0.664"/><circle cx="543.68" cy="513.23" r="0.74" fill="#ffffff" fill-opacity="0.388"/><circle cx="335.66" cy="625.90" r="0.96" fill="#ffffff" fill-opacity="0.578"/><circle cx="364.16" cy="497.26" r="0.70" fill="#ffffff" fill-opacity="0.605"/><circle cx="523.59" cy="622.54" r="0.68" fill="#ffe7b8" fill-opacity="0.494"/><circle cx="434.69" cy="128.67" r="1.01" fill="#ffffff" fill-opacity="0.764"/><circle cx="459.65" cy="432.83" r="0.96" fill="#ffffff" fill-opacity="0.507"/><circle cx="417.35" cy="328.28" r="1.16" fill="#ffffff" fill-opacity="0.326"/><circle cx="610.16" cy="97.92" r="1.19" fill="#bcd7ff" fill-opacity="0.413"/><circle cx="219.49" cy="319.75" r="0.36" fill="#ffffff" fill-opacity="0.451"/><circle cx="281.70" cy="212.13" r="0.54" fill="#ffffff" fill-opacity="0.645"/><circle cx="175.13" cy="641.19" r="0.68" fill="#ffffff" fill-opacity="0.327"/><circle cx="647.66" cy="507.44" r="0.75" fill="#ffffff" fill-opacity="0.537"/><circle cx="282.51" cy="511.04" r="1.05" fill="#ffffff" fill-opacity="0.690"/><circle cx="438.61" cy="100.13" r="1.06" fill="#ffffff" fill-opacity="0.413"/><circle cx="300.92" cy="202.84" r="0.71" fill="#bcd7ff" fill-opacity="0.312"/><circle cx="577.43" cy="224.97" r="0.56" fill="#ffffff" fill-opacity="0.381"/><circle cx="509.84" cy="527.41" r="0.66" fill="#ffe7b8" fill-opacity="0.757"/><circle cx="662.32" cy="724.64" r="1.02" fill="#ffffff" fill-opacity="0.284"/><circle cx="11.99" cy="9.18" r="1.16" fill="#ffffff" fill-opacity="0.594"/><circle cx="114.19" cy="186.91" r="1.01" fill="#ffffff" fill-opacity="0.408"/><circle cx="633.34" cy="134.33" r="1.11" fill="#ffffff" fill-opacity="0.565"/><circle cx="715.13" cy="630.46" r="1.06" fill="#ffffff" fill-opacity="0.318"/><circle cx="593.53" cy="350.87" r="1.10" fill="#ffffff" fill-opacity="0.533"/><circle cx="111.47" cy="394.46" r="0.40" fill="#ffffff" fill-opacity="0.480"/><circle cx="398.54" cy="431.63" r="1.08" fill="#ffffff" fill-opacity="0.204"/><circle cx="450.06" cy="532.24" r="1.06" fill="#ffffff" fill-opacity="0.425"/><circle cx="60.32" cy="509.63" r="0.89" fill="#ffffff" fill-opacity="0.217"/><circle cx="745.19" cy="264.36" r="1.18" fill="#ffffff" fill-opacity="0.506"/><circle cx="27.12" cy="574.55" r="0.88" fill="#ffffff" fill-opacity="0.403"/><circle cx="379.63" cy="420.43" r="1.00" fill="#ffffff" fill-opacity="0.326"/><circle cx="443.22" cy="661.38" r="0.60" fill="#ffffff" fill-opacity="0.697"/><circle cx="217.36" cy="405.14" r="1.18" fill="#ffffff" fill-opacity="0.593"/><circle cx="253.68" cy="239.38" r="0.85" fill="#ffe7b8" fill-opacity="0.581"/><circle cx="578.14" cy="708.48" r="0.81" fill="#ffe7b8" fill-opacity="0.230"/><circle cx="151.95" cy="737.15" r="0.87" fill="#ffffff" fill-opacity="0.595"/><circle cx="489.39" cy="493.36" r="0.88" fill="#ffffff" fill-opacity="0.618"/><circle cx="170.00" cy="533.60" r="0.74" fill="#bcd7ff" fill-opacity="0.658"/><circle cx="145.04" cy="29.58" r="1.01" fill="#ffffff" fill-opacity="0.748"/><circle cx="658.09" cy="629.23" r="0.83" fill="#ffffff" fill-opacity="0.355"/><circle cx="254.78" cy="344.54" r="0.90" fill="#bcd7ff" fill-opacity="0.760"/><circle cx="454.01" cy="31.50" r="0.45" fill="#ffffff" fill-opacity="0.686"/><circle cx="357.18" cy="11.30" r="0.68" fill="#ffffff" fill-opacity="0.555"/><circle cx="380.36" cy="329.93" r="0.44" fill="#ffffff" fill-opacity="0.587"/><circle cx="12.42" cy="3.83" r="0.93" fill="#ffffff" fill-opacity="0.273"/><circle cx="695.64" cy="103.17" r="0.37" fill="#ffffff" fill-opacity="0.632"/><circle cx="149.93" cy="40.11" r="1.01" fill="#ffffff" fill-opacity="0.628"/><circle cx="67.43" cy="502.90" r="0.95" fill="#ffffff" fill-opacity="0.476"/><circle cx="771.45" cy="573.77" r="0.36" fill="#ffffff" fill-opacity="0.209"/><circle cx="63.74" cy="248.85" r="0.97" fill="#ffffff" fill-opacity="0.300"/><circle cx="47.82" cy="294.05" r="0.84" fill="#ffffff" fill-opacity="0.463"/><circle cx="637.89" cy="290.61" r="0.90" fill="#ffffff" fill-opacity="0.578"/><circle cx="628.99" cy="755.94" r="1.02" fill="#ffffff" fill-opacity="0.540"/><circle cx="779.16" cy="562.61" r="1.05" fill="#ffffff" fill-opacity="0.399"/><circle cx="665.03" cy="480.91" r="0.61" fill="#ffffff" fill-opacity="0.457"/><circle cx="547.86" cy="481.43" r="1.11" fill="#ffe7b8" fill-opacity="0.684"/><circle cx="210.44" cy="338.00" r="0.85" fill="#ffe7b8" fill-opacity="0.690"/><circle cx="666.58" cy="649.40" r="1.09" fill="#ffffff" fill-opacity="0.543"/><circle cx="645.63" cy="547.71" r="1.13" fill="#bcd7ff" fill-opacity="0.408"/><circle cx="442.94" cy="637.91" r="0.52" fill="#ffffff" fill-opacity="0.650"/><circle cx="485.52" cy="542.13" r="0.75" fill="#ffffff" fill-opacity="0.324"/><circle cx="633.33" cy="367.77" r="0.42" fill="#ffffff" fill-opacity="0.684"/><circle cx="463.67" cy="717.54" r="1.10" fill="#ffffff" fill-opacity="0.513"/><circle cx="151.32" cy="153.85" r="0.50" fill="#ffffff" fill-opacity="0.621"/><circle cx="321.99" cy="413.77" r="0.48" fill="#ffffff" fill-opacity="0.227"/><circle cx="84.89" cy="506.19" r="1.02" fill="#ffffff" fill-opacity="0.294"/><circle cx="415.57" cy="16.46" r="0.38" fill="#ffffff" fill-opacity="0.794"/><circle cx="453.75" cy="209.28" r="1.01" fill="#ffffff" fill-opacity="0.456"/><circle cx="655.06" cy="770.77" r="0.57" fill="#ffffff" fill-opacity="0.223"/><circle cx="66.93" cy="40.80" r="0.82" fill="#ffffff" fill-opacity="0.722"/><circle cx="727.94" cy="51.35" r="0.86" fill="#bcd7ff" fill-opacity="0.438"/><circle cx="767.44" cy="205.75" r="0.83" fill="#ffffff" fill-opacity="0.584"/><circle cx="314.49" cy="358.67" r="0.49" fill="#ffffff" fill-opacity="0.779"/><circle cx="30.91" cy="204.69" r="0.65" fill="#ffffff" fill-opacity="0.742"/><circle cx="37.63" cy="629.10" r="0.95" fill="#ffe7b8" fill-opacity="0.588"/><circle cx="115.84" cy="603.96" r="1.15" fill="#ffffff" fill-opacity="0.606"/><circle cx="606.32" cy="84.34" r="0.63" fill="#ffffff" fill-opacity="0.354"/><circle cx="134.86" cy="190.77" r="0.47" fill="#bcd7ff" fill-opacity="0.607"/><circle cx="573.78" cy="156.08" r="0.38" fill="#ffffff" fill-opacity="0.757"/><circle cx="693.40" cy="710.97" r="0.47" fill="#bcd7ff" fill-opacity="0.468"/><circle cx="743.02" cy="673.80" r="0.88" fill="#ffffff" fill-opacity="0.471"/><circle cx="382.03" cy="502.55" r="0.47" fill="#bcd7ff" fill-opacity="0.333"/><circle cx="570.98" cy="442.70" r="0.47" fill="#ffffff" fill-opacity="0.722"/><circle cx="124.55" cy="216.89" r="1.06" fill="#ffffff" fill-opacity="0.401"/><circle cx="254.45" cy="722.53" r="0.45" fill="#bcd7ff" fill-opacity="0.787"/><circle cx="716.03" cy="534.62" r="0.53" fill="#ffffff" fill-opacity="0.486"/><circle cx="161.30" cy="291.42" r="1.19" fill="#ffffff" fill-opacity="0.799"/><circle cx="231.54" cy="716.96" r="0.40" fill="#ffffff" fill-opacity="0.636"/><circle cx="12.82" cy="645.62" r="0.64" fill="#bcd7ff" fill-opacity="0.284"/><circle cx="665.80" cy="421.27" r="0.51" fill="#ffffff" fill-opacity="0.461"/><circle cx="457.07" cy="110.46" r="0.50" fill="#ffffff" fill-opacity="0.662"/><circle cx="63.41" cy="69.94" r="0.87" fill="#ffffff" fill-opacity="0.497"/><circle cx="489.95" cy="566.21" r="1.04" fill="#ffffff" fill-opacity="0.550"/><circle cx="586.17" cy="326.50" r="0.96" fill="#ffffff" fill-opacity="0.233"/><circle cx="673.53" cy="691.60" r="0.77" fill="#ffffff" fill-opacity="0.209"/><circle cx="697.61" cy="213.01" r="0.51" fill="#ffffff" fill-opacity="0.699"/><circle cx="296.93" cy="475.92" r="0.35" fill="#ffffff" fill-opacity="0.512"/><circle cx="96.62" cy="571.67" r="1.04" fill="#ffffff" fill-opacity="0.719"/><circle cx="305.11" cy="601.05" r="0.40" fill="#ffffff" fill-opacity="0.724"/><circle cx="410.65" cy="424.41" r="0.81" fill="#ffffff" fill-opacity="0.212"/><circle cx="145.92" cy="82.14" r="0.56" fill="#bcd7ff" fill-opacity="0.690"/><circle cx="77.18" cy="559.17" r="0.52" fill="#ffffff" fill-opacity="0.211"/><circle cx="418.33" cy="562.12" r="0.44" fill="#ffe7b8" fill-opacity="0.722"/><circle cx="98.44" cy="394.87" r="0.78" fill="#ffffff" fill-opacity="0.368"/><circle cx="109.56" cy="473.45" r="1.08" fill="#ffffff" fill-opacity="0.288"/><circle cx="131.46" cy="660.81" r="1.15" fill="#ffffff" fill-opacity="0.433"/><circle cx="420.49" cy="316.51" r="1.15" fill="#ffffff" fill-opacity="0.666"/><circle cx="268.07" cy="348.47" r="1.18" fill="#ffffff" fill-opacity="0.683"/><circle cx="678.10" cy="42.84" r="0.79" fill="#ffffff" fill-opacity="0.775"/><circle cx="337.71" cy="506.15" r="0.66" fill="#bcd7ff" fill-opacity="0.518"/><circle cx="346.43" cy="403.82" r="0.37" fill="#ffffff" fill-opacity="0.284"/><circle cx="749.55" cy="506.57" r="1.04" fill="#ffe7b8" fill-opacity="0.731"/><circle cx="513.26" cy="212.62" r="0.93" fill="#ffffff" fill-opacity="0.364"/><circle cx="497.01" cy="200.46" r="0.79" fill="#ffffff" fill-opacity="0.460"/><circle cx="244.33" cy="518.02" r="0.45" fill="#ffffff" fill-opacity="0.557"/><circle cx="214.73" cy="373.13" r="0.80" fill="#ffffff" fill-opacity="0.289"/><circle cx="234.88" cy="325.24" r="0.60" fill="#bcd7ff" fill-opacity="0.346"/><circle cx="437.05" cy="671.80" r="0.87" fill="#ffffff" fill-opacity="0.542"/><circle cx="568.29" cy="368.71" r="0.82" fill="#ffffff" fill-opacity="0.568"/><circle cx="193.80" cy="177.26" r="0.79" fill="#ffe7b8" fill-opacity="0.430"/><circle cx="282.12" cy="689.49" r="0.55" fill="#ffffff" fill-opacity="0.534"/><circle cx="790.01" cy="236.40" r="1.01" fill="#bcd7ff" fill-opacity="0.295"/><circle cx="697.02" cy="351.99" r="0.40" fill="#ffffff" fill-opacity="0.433"/><circle cx="87.40" cy="180.13" r="1.17" fill="#ffffff" fill-opacity="0.643"/><circle cx="281.96" cy="540.28" r="0.87" fill="#ffffff" fill-opacity="0.710"/><circle cx="591.01" cy="594.62" r="1.00" fill="#ffffff" fill-opacity="0.485"/><circle cx="731.76" cy="101.82" r="1.09" fill="#ffffff" fill-opacity="0.203"/><circle cx="398.31" cy="770.19" r="0.84" fill="#ffffff" fill-opacity="0.451"/><circle cx="485.87" cy="303.65" r="0.73" fill="#ffffff" fill-opacity="0.475"/><circle cx="312.55" cy="444.28" r="0.68" fill="#ffffff" fill-opacity="0.393"/><circle cx="399.64" cy="355.22" r="0.51" fill="#ffffff" fill-opacity="0.382"/><circle cx="465.27" cy="70.34" r="1.13" fill="#ffffff" fill-opacity="0.394"/><circle cx="767.01" cy="163.45" r="0.71" fill="#bcd7ff" fill-opacity="0.746"/><circle cx="37.95" cy="451.95" r="0.77" fill="#ffffff" fill-opacity="0.752"/><circle cx="798.66" cy="413.96" r="0.79" fill="#ffffff" fill-opacity="0.611"/><circle cx="475.78" cy="280.89" r="1.16" fill="#ffffff" fill-opacity="0.606"/><circle cx="299.53" cy="320.71" r="0.83" fill="#ffffff" fill-opacity="0.544"/><circle cx="389.37" cy="352.13" r="0.88" fill="#ffffff" fill-opacity="0.798"/><circle cx="652.71" cy="136.58" r="0.62" fill="#ffffff" fill-opacity="0.787"/><circle cx="88.41" cy="715.61" r="0.94" fill="#ffffff" fill-opacity="0.692"/><circle cx="336.71" cy="125.12" r="0.60" fill="#ffffff" fill-opacity="0.507"/><circle cx="145.93" cy="504.08" r="0.86" fill="#ffffff" fill-opacity="0.412"/><circle cx="33.85" cy="329.13" r="1.02" fill="#ffe7b8" fill-opacity="0.384"/><circle cx="243.57" cy="673.73" r="0.85" fill="#ffffff" fill-opacity="0.601"/><circle cx="442.60" cy="212.81" r="0.90" fill="#ffffff" fill-opacity="0.519"/><circle cx="328.88" cy="97.20" r="0.48" fill="#bcd7ff" fill-opacity="0.656"/><circle cx="80.08" cy="136.43" r="0.79" fill="#ffffff" fill-opacity="0.694"/><circle cx="49.69" cy="9.99" r="1.00" fill="#ffffff" fill-opacity="0.394"/><circle cx="135.53" cy="213.29" r="0.43" fill="#ffffff" fill-opacity="0.742"/><circle cx="359.87" cy="308.53" r="0.40" fill="#ffffff" fill-opacity="0.734"/><circle cx="351.71" cy="496.14" r="0.56" fill="#ffffff" fill-opacity="0.226"/><circle cx="251.83" cy="719.09" r="1.04" fill="#ffffff" fill-opacity="0.382"/></svg>