<svg xmlns="http://www.w3.org/2000/svg" width="800" height="800" viewBox="0 0 800 800"><circle cx="541.70" cy="627.93" r="1.43" fill="#ffffff" fill-opacity="0.634"/><circle cx="231.49" cy="118.61" r="1.02" fill="#ffffff" fill-opacity="0.445"/><circle cx="86.12" cy="260.40" r="1.10" fill="#ffffff" fill-opacity="0.677"/><circle cx="162.04" cy="433.95" r="1.22" fill="#ffffff" fill-opacity="0.800"/><circle cx="79.49" cy="582.40" r="1.81" fill="#ffffff" fill-opacity="0.547"/><circle cx="731.91" cy="667.05" r="1.87" fill="#ffffff" fill-opacity="0.965"/><circle cx="585.10" cy="641.18" r="1.22" fill="#ffffff" fill-opacity="0.354"/><circle cx="564.29" cy="5.56" r="1.33" fill="#bcd7ff" fill-opacity="0.610"/><circle cx="384.15" cy="400.05" r="1.19" fill="#ffffff" fill-opacity="0.922"/><circle cx="195.91" cy="20.71" r="1.20" fill="#ffffff" fill-opacity="0.335"/><circle cx="102.71" cy="226.97" r="1.25" fill="#ffffff" fill-opacity="0.802"/><circle cx="541.90" cy="36.26" r="0.93" fill="#ffffff" fill-opacity="0.766"/><circle cx="53.17" cy="404.64" r="1.65" fill="#ffffff" fill-opacity="0.262"/><circle cx="68.08" cy="136.91" r="1.06" fill="#bcd7ff" fill-opacity="0.600"/><circle cx="496.27" cy="703.00" r="1.69" fill="#ffffff" fill-opacity="0.301"/><circle cx="7.02" cy="307.76" r="1.64" fill="#ffffff" fill-opacity="0.963"/><circle cx="471.08" cy="766.78" r="0.94" fill="#bcd7ff" fill-opacity="0.632"/><circle cx="619.68" cy="522.92" r="0.94" fill="#ffffff" fill-opacity="0.398"/><circle cx="108.71" cy="258.72" r="1.42" fill="#ffffff" fill-opacity="0.446"/><circle cx="764.32" cy="512.78" r="1.69" fill="#ffffff" fill-opacity="0.464"/><circle cx="382.76" cy="49.98" r="1.96" fill="#ffffff" fill-opacity="0.366"/><circle cx="410.36" cy="694.81" r="1.02" fill="#ffffff" fill-opacity="0.600"/><circle cx="295.53" cy="356.20" r="1.95" fill="#bcd7ff" fill-opacity="0.978"/><circle cx="534.15" cy="423.07" r="1.26" fill="#ffffff" fill-opacity="0.281"/><circle cx="293.66" cy="474.78" r="1.19" fill="#ffffff" fill-opacity="0.472"/><circle cx="313.48" cy="778.30" r="0.86" fill="#ffffff" fill-opacity="0.748"/><circle cx="411.53" cy="699.09" r="1.54" fill="#ffffff" fill-opacity="0.285"/><circle cx="196.24" cy="584.52" r="1.94" fill="#ffffff" fill-opacity="0.458"/><circle cx="471.59" cy="355.31" r="0.72" fill="#ffffff" fill-opacity="0.587"/><circle cx="283.06" cy="628.23" r="1.68" fill="#ffffff" fill-opacity="0.444"/><circle cx="176.83" cy="357.97" r="1.09" fill="#ffffff" fill-opacity="0.687"/><circle cx="152.27" cy="51.02" r="0.80" fill="#ffffff" fill-opacity="0.641"/><circle cx="362.46" cy="420.35" r="0.64" fill="#ffffff" fill-opacity="0.419"/><circle cx="630.45" cy="333.60" r="0.82" fill="#ffffff" fill-opacity="0.651"/><circle cx="486.44" cy="68.79" r="1.81" fill="#bcd7ff" fill-opacity="0.579"/><circle cx="539.25" cy="769.17" r="1.78" fill="#ffffff" fill-opacity="0.881"/><circle cx="389.03" cy="592.99" r="1.24" fill="#ffe7b8" fill-opacity="0.975"/><circle cx="76.08" cy="341.63" r="0.63" fill="#ffffff" fill-opacity="0.707"/><circle cx="789.36" cy="199.22" r="0.89" fill="#ffe7b8" fill-opacity="0.303"/><circle cx="57.98" cy="533.80" r="2.12" fill="#bcd7ff" fill-opacity="0.651"/><circle cx="28.18" cy="655.61" r="1.70" fill="#ffffff" fill-opacity="0.483"/><circle cx="118.77" cy="773.01" r="0.69" fill="#ffffff" fill-opacity="0.522"/><circle cx="391.04" cy="201.65" r="1.60" fill="#ffffff" fill-opacity="0.330"/><circle cx="167.00" cy="476.77" r="1.03" fill="#ffffff" fill-opacity="0.681"/><circle cx="392.59" cy="57.30" r="2.19" fill="#ffffff" fill-opacity="0.841"/><circle cx="141.46" cy="133.47" r="1.21" fill="#bcd7ff" fill-opacity="0.787"/><circle cx="749.05" cy="201.02" r="0.86" fill="#ffffff" fill-opacity="0.616"/><circle cx="429.47" cy="789.51" r="1.44" fill="#ffffff" fill-opacity="0.510"/><circle cx="504.88" cy="473.75" r="0.91" fill="#ffffff" fill-opacity="0.259"/><circle cx="675.82" cy="673.30" r="1.28" fill="#ffffff" fill-opacity="0.390"/><circle cx="52.70" cy="503.90" r="1.40" fill="#ffffff" fill-opacity="0.268"/><circle cx="357.24" cy="204.13" r="2.02" fill="#ffffff" fill-opacity="0.754"/><circle cx="727.62" cy="310.47" r="1.52" fill="#ffffff" fill-opacity="0.321"/><circle cx="763.88" cy="745.14" r="0.84" fill="#ffffff" fill-opacity="0.776"/><circle cx="714.91" cy="76.40" r="0.73" fill="#ffffff" fill-opacity="0.512"/><circle cx="504.92" cy="412.32" r="2.07" fill="#ffffff" fill-opacity="0.612"/><circle cx="18.61" cy="527.76" r="0.85" fill="#ffffff" fill-opacity="0.615"/><circle cx="102.13" cy="225.92" r="1.13" fill="#ffffff" fill-opacity="0.640"/><circle cx="741.06" cy="755.02" r="1.67" fill="#ffffff" fill-opacity="0.847"/><circle cx="133.14" cy="151.60" r="1.83" fill="#bcd7ff" fill-opacity="0.752"/><circle cx="233.63" cy="59.40" r="1.44" fill="#ffffff" fill-opacity="0.506"/><circle cx="322.80" cy="363.13" r="1.86" fill="#ffffff" fill-opacity="0.302"/><circle cx="633.32" cy="124.94" r="1.06" fill="#ffffff" fill-opacity="0.930"/><circle cx="301.00" cy="269.44" r="1.12" fill="#ffffff" fill-opacity="0.961"/><circle cx="722.82" cy="508.03" r="2.10" fill="#ffffff" fill-opacity="0.737"/><circle cx="397.45" cy="417.30" r="1.59" fill="#ffffff" fill-opacity="0.885"/><circle cx="659.47" cy="759.73" r="1.92" fill="#ffffff" fill-opacity="0.448"/><circle cx="252.13" cy="442.64" r="1.87" fill="#ffffff" fill-opacity="0.856"/><circle cx="530.86" cy="137.25" r="1.82" fill="#ffffff" fill-opacity="0.842"/><circle cx="253.05" cy="223.32" r="2.15" fill="#bcd7ff" fill-opacity="0.712"/><circle cx="346.67" cy="253.75" r="1.92" fill="#ffffff" fill-opacity="0.980"/><circle cx="684.34" cy="91.98" r="1.31" fill="#ffffff" fill-opacity="0.275"/><circle cx="566.93" cy="219.36" r="1.65" fill="#ffffff" fill-opacity="0.665"/><circle cx="641.35" cy="631.29" r="1.27" fill="#ffffff" fill-opacity="0.845"/><circle cx="181.41" cy="399.13" r="0.69" fill="#ffffff" fill-opacity="0.884"/><circle cx="685.12" cy="548.64" r="1.33" fill="#ffffff" fill-opacity="0.897"/><circle cx="210.35" cy="627.96" r="2.12" fill="#ffffff" fill-opacity="0.551"/><circle cx="472.82" cy="605.31" r="0.78" fill="#ffffff" fill-opacity="0.336"/><circle cx="123.43" cy="634.25" r="0.83" fill="#ffffff" fill-opacity="0.888"/><circle cx="238.72" cy="608.75" r="1.99" fill="#ffffff" fill-opacity="0.367"/><circle cx="609.64" cy="11.74" r="1.89" fill="#ffffff" fill-opacity="0.718"/><circle cx="331.01" cy="500.43" r="2.04" fill="#ffffff" fill-opacity="0.560"/><circle cx="732.61" cy="781.37" r="0.73" fill="#ffffff" fill-opacity="0.404"/><circle cx="570.51" cy="474.73" r="1.15" fill="#ffffff" fill-opacity="0.382"/><circle cx="154.88" cy="142.43" r="1.46" fill="#ffffff" fill-opacity="0.384"/><circle cx="61.72" cy="378.11" r="1.72" fill="#ffffff" fill-opacity="0.687"/><circle cx="86.74" cy="21.18" r="0.99" fill="#ffffff" fill-opacity="0.912"/><circle cx="294.86" cy="286.81" r="1.30" fill="#ffffff" fill-opacity="0.391"/><circle cx="760.46" cy="622.99" r="0.90" fill="#ffffff" fill-opacity="0.950"/><circle cx="357.11" cy="665.78" r="1.44" fill="#ffffff" fill-opacity="0.570"/><circle cx="424.28" cy="97.69" r="1.37" fill="#ffffff" fill-opacity="0.611"/><circle cx="154.61" cy="68.38" r="1.23" fill="#ffffff" fill-opacity="0.563"/><circle cx="739.19" cy="42.79" r="1.69" fill="#ffffff" fill-opacity="0.415"/><circle cx="404.41" cy="82.04" r="0.95" fill="#ffe7b8" fill-opacity="0.319"/><circle cx="538.14" cy="216.75" r="0.77" fill="#ffffff" fill-opacity="0.877"/><circle cx="203.12" cy="599.00" r="1.09" fill="#ffffff" fill-opacity="0.808"/><circle cx="234.71" cy="423.59" r="2.00" fill="#ffffff" fill-opacity="0.317"/><circle cx="11.38" cy="225.93" r="0.92" fill="#ffffff" fill-opacity="0.753"/><circle cx="329.03" cy="639.88" r="1.92" fill="#bcd7ff" fill-opacity="0.773"/><circle cx="151.75" cy="659.74" r="0.93" fill="#ffffff" fill-opacity="0.700"/><circle cx="355.97" cy="297.90" r="1.48" fill="#ffffff" fill-opacity="0.515"/><circle cx="302.90" cy="754.45" r="1.29" fill="#ffffff" fill-opacity="0.356"/><circle cx="789.91" cy="350.50" r="0.78" fill="#ffffff" fill-opacity="0.525"/><circle cx="114.63" cy="240.99" r="0.79" fill="#ffffff" fill-opacity="0.496"/><circle cx="104.16" cy="100.35" r="0.81" fill="#ffffff" fill-opacity="0.544"/><circle cx="378.30" cy="726.07" r="1.10" fill="#ffffff" fill-opacity="0.526"/><circle cx="177.47" cy="681.21" r="1.85" fill="#ffffff" fill-opacity="0.779"/><circle cx="258.86" cy="513.62" r="1.19" fill="#ffffff" fill-opacity="0.689"/><circle cx="684.56" cy="517.30" r="1.07" fill="#ffffff" fill-opacity="0.473"/><circle cx="656.10" cy="75.53" r="1.57" fill="#ffffff" fill-opacity="0.408"/><circle cx="346.89" cy="165.28" r="1.55" fill="#ffffff" fill-opacity="0.493"/><circle cx="259.29" cy="430.41" r="1.52" fill="#ffffff" fill-opacity="0.632"/><circle cx="682.00" cy="134.02" r="0.81" fill="#ffffff" fill-opacity="0.250"/><circle cx="560.92" cy="263.77" r="1.61" fill="#ffffff" fill-opacity="0.686"/><circle cx="721.62" cy="542.98" r="0.81" fill="#ffe7b8" fill-opacity="0.880"/><circle cx="431.28" cy="670.23" r="1.56" fill="#ffffff" fill-opacity="0.454"/><circle cx="68.01" cy="48.27" r="1.47" fill="#ffffff" fill-opacity="0.654"/><circle cx="171.07" cy="796.36" r="0.88" fill="#ffffff" fill-opacity="0.559"/><circle cx="790.87" cy="57.57" r="1.76" fill="#ffffff" fill-opacity="0.300"/><circle cx="497.44" cy="174.72" r="2.08" fill="#ffffff" fill-opacity="0.383"/><circle cx="515.42" cy="303.09" r="1.46" fill="#ffffff" fill-opacity="0.653"/><circle cx="175.46" cy="724.28" r="1.64" fill="#ffffff" fill-opacity="0.351"/><circle cx="554.86" cy="798.19" r="1.05" fill="#ffffff" fill-opacity="0.750"/><circle cx="410.78" cy="392.81" r="1.43" fill="#ffffff" fill-opacity="0.660"/><circle cx="715.72" cy="177.41" r="1.45" fill="#ffffff" fill-opacity="0.858"/><circle cx="199.39" cy="562.03" r="2.08" fill="#ffffff" fill-opacity="0.383"/><circle cx="102.70" cy="217.93" r="1.17" fill="#ffffff" fill-opacity="0.477"/><circle cx="141.36" cy="578.71" r="1.42" fill="#bcd7ff" fill-opacity="0.826"/><circle cx="735.90" cy="347.55" r="1.71" fill="#ffffff" fill-opacity="0.656"/><circle cx="423.46" cy="319.39" r="0.61" fill="#ffffff" fill-opacity="0.315"/><circle cx="240.12" cy="106.00" r="1.68" fill="#ffffff" fill-opacity="0.332"/><circle cx="759.66" cy="263.01" r="1.44" fill="#bcd7ff" fill-opacity="0.655"/><circle cx="227.99" cy="123.31" r="0.99" fill="#ffffff" fill-opacity="0.476"/><circle cx="366.52" cy="136.44" r="0.86" fill="#ffffff" fill-opacity="0.268"/><circle cx="171.78" cy="334.27" r="0.62" fill="#ffffff" fill-opacity="0.899"/><circle cx="302.40" cy="56.12" r="1.93" fill="#ffffff" fill-opacity="0.369"/><circle cx="722.00" cy="56.78" r="1.08" fill="#ffffff" fill-opacity="0.796"/><circle cx="463.72" cy="363.52" r="2.02" fill="#ffffff" fill-opacity="0.921"/><circle cx="522.94" cy="567.98" r="0.85" fill="#ffffff" fill-opacity="0.729"/><circle cx="232.73" cy="243.60" r="1.29" fill="#ffffff" fill-opacity="0.912"/><circle cx="434.54" cy="649.84" r="1.11" fill="#ffffff" fill-opacity="0.999"/><circle cx="273.11" cy="498.21" r="2.13" fill="#ffffff" fill-opacity="0.504"/><circle cx="103.79" cy="4.78" r="1.89" fill="#ffffff" fill-opacity="0.311"/><circle cx="684.77" cy="8.37" r="1.41" fill="#bcd7ff" fill-opacity="0.262"/><circle cx="218.63" cy="370.33" r="1.19" fill="#ffffff" fill-opacity="0.354"/><circle cx="265.21" cy="553.59" r="1.10" fill="#ffffff" fill-opacity="0.842"/><circle cx="269.80" cy="236.75" r="0.96" fill="#ffffff" fill-opacity="0.262"/><circle cx="338.92" cy="391.08" r="2.10" fill="#ffffff" fill-opacity="0.464"/><circle cx="610.58" cy="129.53" r="1.25" fill="#ffffff" fill-opacity="0.671"/><circle cx="648.57" cy="31.04" r="1.55" fill="#ffe7b8" fill-opacity="0.252"/><circle cx="504.90" cy="73.59" r="0.68" fill="#bcd7ff" fill-opacity="0.780"/><circle cx="283.01" cy="31.94" r="1.52" fill="#ffffff" fill-opacity="0.424"/><circle cx="439.76" cy="575.37" r="1.91" fill="#ffffff" fill-opacity="0.390"/><circle cx="640.09" cy="482.25" r="0.94" fill="#bcd7ff" fill-opacity="0.424"/><circle cx="369.89" cy="196.83" r="1.25" fill="#ffffff" fill-opacity="0.648"/><circle cx="376.36" cy="219.81" r="1.74" fill="#ffffff" fill-opacity="0.377"/><circle cx="797.89" cy="133.15" r="1.92" fill="#ffffff" fill-opacity="0.911"/><circle cx="565.81" cy="114.02" r="0.92" fill="#ffffff" fill-opacity="0.826"/><circle cx="231.72" cy="695.63" r="1.15" fill="#ffffff" fill-opacity="0.667"/><circle cx="533.20" cy="297.52" r="1.82" fill="#bcd7ff" fill-opacity="0.902"/><circle cx="344.31" cy="779.15" r="2.19" fill="#bcd7ff" fill-opacity="0.643"/><circle cx="118.68" cy="737.45" r="1.63" fill="#ffffff" fill-opacity="0.355"/><circle cx="260.18" cy="572.14" r="0.62" fill="#ffffff" fill-opacity="0.670"/><circle cx="332.71" cy="419.99" r="1.37" fill="#ffffff" fill-opacity="0.408"/><circle cx="537.24" cy="459.35" r="1.81" fill="#ffffff" fill-opacity="0.834"/><circle cx="632.70" cy="513.22" r="1.07" fill="#ffffff" fill-opacity="0.316"/><circle cx="85.72" cy="739.18" r="1.60" fill="#ffffff" fill-opacity="0.424"/><circle cx="205.18" cy="240.17" r="1.57" fill="#ffffff" fill-opacity="0.555"/><circle cx="98.03" cy="0.08" r="1.53" fill="#ffffff" fill-opacity="0.811"/><circle cx="95.16" cy="173.94" r="0.81" fill="#ffffff" fill-opacity="0.297"/><circle cx="579.84" cy="104.91" r="1.50" fill="#ffffff" fill-opacity="0.998"/><circle cx="400.73" cy="645.49" r="1.10" fill="#ffffff" fill-opacity="0.435"/><circle cx="317.28" cy="423.13" r="1.26" fill="#ffffff" fill-opacity="0.563"/><circle cx="789.94" cy="312.68" r="0.71" fill="#ffffff" fill-opacity="0.742"/><circle cx="728.69" cy="93.65" r="1.85" fill="#ffffff" fill-opacity="0.853"/><circle cx="466.70" cy="316.00" r="1.39" fill="#bcd7ff" fill-opacity="0.411"/><circle cx="279.51" cy="599.83" r="1.88" fill="#ffe7b8" fill-opacity="0.643"/><circle cx="371.21" cy="795.02" r="0.85" fill="#bcd7ff" fill-opacity="0.421"/><circle cx="512.55" cy="464.20" r="1.37" fill="#ffffff" fill-opacity="0.271"/><circle cx="438.42" cy="679.74" r="1.77" fill="#bcd7ff" fill-opacity="0.975"/></svg>